<?xml version="1.0" standalone="no"?>
<!DOCTYPE svg PUBLIC "-//W3C//DTD SVG 20010904//EN"
 "http://www.w3.org/TR/2001/REC-SVG-20010904/DTD/svg10.dtd">
<svg version="1.0" xmlns="http://www.w3.org/2000/svg" width="1920.000000pt" height="1920.000000pt" viewBox="0 0 1920.000000 1920.000000" preserveAspectRatio="xMidYMid meet">

<g transform="translate(0.000000,1920.000000) scale(0.100000,-0.100000)" fill="#E52F20" stroke="none">
<path d="M9145 19189 c-2403 -118 -4638 -1109 -6335 -2809 -1807 -1809 -2810
-4231 -2810 -6785 0 -1796 499 -3546 1443 -5065 1043 -1678 2602 -3014 4412
-3780 938 -397 1875 -629 2935 -727 286 -26 1344 -26 1630 0 1561 145 2963
610 4250 1410 2459 1529 4106 4093 4464 6952 56 452 61 544 61 1210 0 666 -5
758 -61 1210 -264 2109 -1225 4067 -2739 5580 -1818 1819 -4263 2827 -6825
2813 -146 0 -337 -5 -425 -9z m1519 -6900 c425 -32 772 -118 1067 -266 l147
-73 158 -163 c221 -227 328 -365 412 -532 63 -126 98 -264 117 -465 l6 -65
-64 -63 -64 -63 -254 -10 c-140 -6 -528 -12 -864 -12 -567 -2 -614 -1 -662 16
-62 22 -91 53 -143 156 -21 42 -49 86 -62 98 -63 59 -184 75 -336 44 -134 -28
-199 -53 -250 -97 -124 -106 -42 -256 184 -334 63 -22 388 -109 892 -239 466
-121 645 -182 903 -311 409 -205 662 -472 779 -820 110 -327 103 -772 -17
-1145 -129 -400 -360 -670 -769 -899 -348 -195 -870 -320 -1533 -367 -389 -28
-970 46 -1358 172 -552 180 -869 447 -1064 900 -70 161 -139 459 -139 598 0
55 37 85 93 76 21 -4 440 1 932 11 873 17 894 17 935 -1 51 -23 83 -69 140
-197 67 -155 146 -217 307 -240 212 -31 434 71 492 227 28 73 27 155 0 212
-30 61 -119 136 -224 188 -156 76 -484 167 -840 230 -463 83 -938 264 -1255
479 -351 237 -520 554 -537 1007 -19 478 138 922 437 1242 360 384 1020 651
1745 706 164 12 529 12 689 0z m-5709 -152 c598 -58 994 -154 1350 -327 228
-111 376 -219 545 -397 150 -159 335 -469 444 -745 85 -217 160 -552 187 -841
17 -189 7 -604 -20 -782 -56 -366 -176 -725 -337 -1005 -336 -583 -907 -1017
-1554 -1180 -327 -83 -515 -92 -1329 -69 -324 10 -537 9 -1065 -2 -364 -7
-704 -14 -756 -14 l-95 0 -35 90 -35 90 -3 2534 c-2 2407 -1 2535 15 2554 32
35 91 57 210 78 169 30 346 34 1378 34 799 -1 944 -3 1100 -18z m12225 -700
l0 -662 -24 -45 c-13 -25 -39 -54 -57 -65 -33 -20 -50 -20 -694 -18 -363 0
-775 6 -915 11 -140 6 -256 10 -256 9 -7 -8 -47 -355 -51 -439 l-6 -108 867 0
c912 0 909 0 945 -44 11 -13 14 -71 16 -274 1 -141 6 -405 10 -587 6 -285 5
-333 -8 -350 -13 -16 -29 -19 -123 -21 -60 -2 -260 -10 -444 -18 -355 -17
-957 -36 -1127 -36 l-103 0 0 -251 0 -250 143 5 c78 3 225 8 327 11 102 3 334
13 515 21 182 8 461 16 620 17 312 2 349 -2 403 -48 l30 -25 8 -567 c5 -313 9
-615 8 -673 0 -111 -10 -145 -54 -185 -22 -20 -41 -20 -1014 -27 -545 -3
-1265 -13 -1601 -22 -335 -8 -783 -18 -995 -22 l-386 -7 -51 58 c-48 53 -52
62 -59 124 -7 67 -1 1196 16 2751 5 470 9 1203 10 1628 l0 772 2025 0 2025 0
0 -663z"/>
<path d="M4228 10897 l-57 -103 -6 -825 c-10 -1160 12 -1682 81 -1890 24 -76
38 -83 146 -75 354 28 595 141 757 356 148 197 228 446 260 815 17 185 14 706
-4 860 -25 210 -65 350 -148 510 -31 60 -64 103 -132 171 -79 80 -103 98 -195
143 -160 78 -323 117 -565 136 l-80 6 -57 -104z"/>
</g>
</svg>
